<svg xmlns="http://www.w3.org/2000/svg" width="388.025" height="429.078" viewBox="0 0 388.025 429.078">
  <g id="Grass2" transform="translate(-10 -12.564)">
    <g id="Group_1" data-name="Group 1" transform="translate(10 12.564)">
      <path id="Path_1" data-name="Path 1" d="M47.542-477.4a9.491,9.491,0,0,0-2.485,11.114c.663,1.664,5.8,8.05,11.519,14.349A282.142,282.142,0,0,1,86.743-412.57c31.238,48.733,54.03,116.191,66.212,195.985,1.989,13.125,4.557,32.985,4.557,35.26,0,.7-2.735-4.639-6.133-11.726-14.5-30.8-32.318-56.7-56.435-82.154C69.17-302.326,36.6-325.425,21.932-327,14.061-327.877,10-324.377,10-316.939c0,4.111.5,4.811,13.674,19.859,21.049,24.147,34.227,43.834,46.738,70.257,21.049,44.358,31.822,93.268,33.894,153.638l.579,17.324,2.735,2.535c4.557,4.375,10.689,2.887,13.011-3.063,1.159-2.975.413-32.9-1.242-49.785-6.8-69.033-27.015-127.392-60.25-174.2-3.314-4.723-5.966-8.75-5.8-8.926.663-.788,19.974,16.624,29.42,26.6,32.155,33.861,55.193,72.972,68.371,116.191,7.208,23.623,10.939,45.758,12.182,72.444.913,19.248,1.326,20.735,6.3,22.923,2.4,1.052,3.231,1.052,5.636,0,5.8-2.535,5.8-2.452,5.22-34.472-2.568-142.692-29.75-258.007-79.056-335.966-4.64-7.35-8.038-13.037-7.458-12.685,2.651,1.664,18.068,17.5,24.86,25.546C162.9-356.4,194.06-286.406,210.219-203.46c7.792,39.9,12.761,90.121,12.761,128.18,0,7.962.413,15.925.83,17.672,1.822,6.822,8.534,8.926,13.424,4.287l2.735-2.535L239.886-70.2c0-7.874-.167-23.887-.334-35.7-.663-53.9,8.951-115.407,25.522-162.3,18.735-53.113,45.917-91.525,83.125-117.511,4.89-3.411,9.447-7.086,10.193-8.226,2.485-3.763,1.326-10.062-2.406-12.6-6.049-4.2-28.507.7-48.064,10.5-33.064,16.629-60.742,46.726-80.549,87.761-4.723,9.622-13.095,30.357-15.417,37.884-.5,1.576.083,2.887-5.22-12.685-20.47-60.635-51.133-113.391-88.095-151.627-24.034-24.851-50.553-43.487-63.314-44.534C50.606-479.68,49.943-479.5,47.542-477.4ZM303.367-369.523c-35.8,40.423-59.666,94.667-72.182,164.312l-1.905,10.5-1.492-7.874c-.746-4.375-2.818-13.913-4.473-21.347l-2.985-13.385,1.409-5.427c.746-2.887,3.068-10.85,5.136-17.5C242.7-311.6,268.643-350.1,302.375-372.5c3.894-2.535,7.208-4.639,7.375-4.639C310-377.138,307.1-373.723,303.367-369.523Z" transform="translate(-10 479.436)" fill="#92ba92"/>
      <path id="Path_2" data-name="Path 2" d="M698.352-132.64c-6.1,2.212-15.917,8.308-25.2,15.648-2.535,2-8.58,7.662-13.49,12.573C628.749-73.4,610.675-36.112,605.17,8.24c-.917,7.122-1.512,22.822-.972,24.82a5.309,5.309,0,0,0,8.634,2.589c1.726-1.618,1.889-2.535,2.321-12.627a178.775,178.775,0,0,1,39.01-105c5.936-7.445,20.018-21.744,26.169-26.6a46.491,46.491,0,0,1,4.533-3.344,10.166,10.166,0,0,1-1.458,2.266c-2.807,3.724-8.2,12.141-11.87,18.506-13.922,24.119-23.688,55.9-27.249,88.595-1.026,9.875-2.049,28.489-1.781,32.968.214,3.13.432,3.67,1.943,5.019a5.2,5.2,0,0,0,6.528.7c2.158-1.566,2.752-3.938,2.752-11.384,0-29.947,6.259-62.589,17.1-89.189,7.5-18.452,16.565-33.182,31.079-50.611l6.854-8.205V-127.3c0-3.993,0-4.1-1.726-5.125C704.937-133.666,701.376-133.772,698.352-132.64Z" transform="translate(-320.741 391.819)" fill="#92ba92"/>
    </g>
  </g>
</svg>
