<svg xmlns="http://www.w3.org/2000/svg" width="2057" height="165.833" viewBox="0 0 2057 165.833">
  <g id="Waves" transform="translate(0 -1714.085)">
    <g id="Waves-2" data-name="Waves" transform="translate(3.214 1714.085)">
      <path id="Path_3" data-name="Path 3" d="M172.311-379.171c-9.2,3.782-14.164,9.439-22.425,25.736-18.889,37.3-46.275,63.74-77.2,74.133a194.709,194.709,0,0,1-29.036,5.9C22.878-270.805,15.8-266.08,11.542-251.68c-2.357,7.318-2.121,10.147,1.65,17.947,6.846,13.693,16.768,17.947,38.722,15.814,41.786-3.546,72.011-18.418,105.773-51.943l24.086-24.075L192.4-280.245c34.94,45.568,80.979,68.936,119.937,61.383,34-6.611,75.783-36.118,105.3-74.369l5.432-7.082,7.318,9.439c25.5,32.582,57.611,59.261,81.215,67.758,18.889,6.846,44.625,6.611,62.09-.236,25.029-10.157,56.9-35.411,83.572-65.872l8.968-10.393,3.546,5.2c28.565,40.843,67.994,69.408,104.358,75.783,39.9,7.082,83.1-12.75,122.53-55.951l16.05-17.711,13.693,17.711c16.286,21.247,32.347,34.7,54.065,45.1,17.711,8.732,44.861,14.4,57.129,12.043,11.1-2.121,22.425-15.579,22.425-26.443,0-18.182-10.146-27.386-32.818-29.979-30.225-3.546-54.065-24.086-72.483-62.561-5.9-12.514-12.043-25.5-13.457-28.565-6.847-13.929-27.15-19.832-40.136-11.336-3.064,1.886-10.393,11.807-16.3,21.954-24.075,41.786-52.651,69.879-78.858,78.151-17,5.2-33.525,2.121-52.179-10.157-15.579-10.629-38.015-37.779-51.236-62.8-4.961-9.439-11.336-19.6-13.929-22.425-7.318-8.261-18.182-10.864-29.036-7.318-7.554,2.593-11.572,6.611-24.557,25.5-21.482,31.4-53.593,64.222-71.54,73.19-7.789,3.782-17.475,7.082-21.718,7.082-19.6,0-51.943-27.622-74.369-63.5-24.322-38.958-24.322-38.958-34.7-42.258-16.286-5.2-24.322.236-43.908,29.743-19.361,28.8-47.454,58.083-65.4,67.758-15.814,8.5-34,9.439-47.925,2.593-20.539-10.157-44.39-38.722-63.976-76.254-4.961-9.439-11.336-18.418-14.164-20.3C190.012-380.349,179.158-382.01,172.311-379.171Z" transform="translate(-10.014 380.658)" fill="#525e75"/>
    </g>
    <g id="Waves-3" data-name="Waves" transform="translate(988.945 1714.085)">
      <path id="Path_3-2" data-name="Path 3" d="M172.311-379.171c-9.2,3.782-14.164,9.439-22.425,25.736-18.889,37.3-46.275,63.74-77.2,74.133a194.709,194.709,0,0,1-29.036,5.9C22.878-270.805,15.8-266.08,11.542-251.68c-2.357,7.318-2.121,10.147,1.65,17.947,6.846,13.693,16.768,17.947,38.722,15.814,41.786-3.546,72.011-18.418,105.773-51.943l24.086-24.075L192.4-280.245c34.94,45.568,80.979,68.936,119.937,61.383,34-6.611,75.783-36.118,105.3-74.369l5.432-7.082,7.318,9.439c25.5,32.582,57.611,59.261,81.215,67.758,18.889,6.846,44.625,6.611,62.09-.236,25.029-10.157,56.9-35.411,83.572-65.872l8.968-10.393,3.546,5.2c28.565,40.843,67.994,69.408,104.358,75.783,39.9,7.082,83.1-12.75,122.53-55.951l16.05-17.711,13.693,17.711c16.286,21.247,32.347,34.7,54.065,45.1,17.711,8.732,44.861,14.4,57.129,12.043,11.1-2.121,22.425-15.579,22.425-26.443,0-18.182-10.146-27.386-32.818-29.979-30.225-3.546-54.065-24.086-72.483-62.561-5.9-12.514-12.043-25.5-13.457-28.565-6.847-13.929-27.15-19.832-40.136-11.336-3.064,1.886-10.393,11.807-16.3,21.954-24.075,41.786-52.651,69.879-78.858,78.151-17,5.2-33.525,2.121-52.179-10.157-15.579-10.629-38.015-37.779-51.236-62.8-4.961-9.439-11.336-19.6-13.929-22.425-7.318-8.261-18.182-10.864-29.036-7.318-7.554,2.593-11.572,6.611-24.557,25.5-21.482,31.4-53.593,64.222-71.54,73.19-7.789,3.782-17.475,7.082-21.718,7.082-19.6,0-51.943-27.622-74.369-63.5-24.322-38.958-24.322-38.958-34.7-42.258-16.286-5.2-24.322.236-43.908,29.743-19.361,28.8-47.454,58.083-65.4,67.758-15.814,8.5-34,9.439-47.925,2.593-20.539-10.157-44.39-38.722-63.976-76.254-4.961-9.439-11.336-18.418-14.164-20.3C190.012-380.349,179.158-382.01,172.311-379.171Z" transform="translate(-10.014 380.658)" fill="#525e75"/>
    </g>
    <rect id="Rectangle_4" data-name="Rectangle 4" width="2057" height="56" transform="translate(0 1823.918)" fill="#525e75"/>
    <rect id="Rectangle_5" data-name="Rectangle 5" width="78" height="48" transform="translate(119 1782.918)" fill="#525e75"/>
    <rect id="Rectangle_6" data-name="Rectangle 6" width="78" height="48" transform="translate(378 1782.918)" fill="#525e75"/>
    <rect id="Rectangle_7" data-name="Rectangle 7" width="78" height="48" transform="translate(618 1782.918)" fill="#525e75"/>
    <rect id="Rectangle_8" data-name="Rectangle 8" width="78" height="48" transform="translate(868 1782.918)" fill="#525e75"/>
    <rect id="Rectangle_9" data-name="Rectangle 9" width="78" height="48" transform="translate(1118 1782.918)" fill="#525e75"/>
    <rect id="Rectangle_10" data-name="Rectangle 10" width="78" height="48" transform="translate(1364 1782.918)" fill="#525e75"/>
    <rect id="Rectangle_11" data-name="Rectangle 11" width="79" height="48" transform="translate(1610 1782.918)" fill="#525e75"/>
    <rect id="Rectangle_12" data-name="Rectangle 12" width="78" height="48" transform="translate(1853 1787.918)" fill="#525e75"/>
  </g>
</svg>
